<svg width="30" height="24" viewBox="0 0 30 24" fill="none" xmlns="http://www.w3.org/2000/svg">
<path d="M27.8573 9.69412H7.31699L12.2303 4.34485C12.4349 4.12965 12.5982 3.87224 12.7105 3.58762C12.8228 3.303 12.8819 2.99688 12.8844 2.68712C12.8868 2.37737 12.8326 2.07017 12.7249 1.78347C12.6171 1.49677 12.458 1.2363 12.2568 1.01726C12.0557 0.798226 11.8164 0.625003 11.5531 0.507704C11.2897 0.390406 11.0076 0.331381 10.7231 0.334072C10.4386 0.336764 10.1574 0.401119 9.89598 0.523382C9.63456 0.645646 9.39812 0.823369 9.20046 1.04618L0.62951 10.3776C0.429965 10.5944 0.271647 10.8518 0.163625 11.1352C0.0556034 11.4186 0 11.7225 0 12.0293C0 12.3362 0.0556034 12.64 0.163625 12.9234C0.271647 13.2068 0.429965 13.4643 0.62951 13.681L9.20046 23.0125C9.60458 23.4374 10.1458 23.6725 10.7077 23.6672C11.2695 23.6619 11.8069 23.4166 12.2042 22.984C12.6015 22.5515 12.8268 21.9664 12.8317 21.3547C12.8366 20.7431 12.6206 20.1538 12.2303 19.7138L7.31699 14.3599H27.8573C28.4256 14.3599 28.9706 14.1141 29.3724 13.6766C29.7743 13.2391 30 12.6457 30 12.027C30 11.4083 29.7743 10.8149 29.3724 10.3774C28.9706 9.9399 28.4256 9.69412 27.8573 9.69412Z" fill="#374151"/>
</svg>
